<svg aria-hidden="true" style="position: absolute; width: 0; height: 0; overflow: hidden;" version="1.1" xmlns="http://www.w3.org/2000/svg" xmlns:xlink="http://www.w3.org/1999/xlink">
<defs>
<symbol id="icon-310377" viewBox="0 0 34 32">
<path d="M13.603 0.356c-0.077 0.187-0.193 0.42-0.256 0.515-0.124 0.18-0.338 0.383-0.483 0.459-0.048 0.024-0.108 0.066-0.132 0.090s-0.114 0.090-0.195 0.145c-0.127 0.082-0.156 0.119-0.193 0.23-0.026 0.082-0.071 0.151-0.111 0.177-0.063 0.042-0.069 0.042-0.103-0.005-0.050-0.066-0.048-0.090 0.029-0.312 0.074-0.211 0.137-0.28 0.327-0.351 0.066-0.024 0.153-0.066 0.193-0.095 0.040-0.026 0.106-0.061 0.15-0.077 0.069-0.024 0.127-0.092 0.1-0.119-0.011-0.011-0.193-0.040-0.547-0.092-0.348-0.050-0.599 0.018-0.708 0.193-0.048 0.077-0.108 0.269-0.148 0.47-0.011 0.053-0.045 0.077-0.187 0.127-0.095 0.032-0.325 0.132-0.507 0.219-0.185 0.087-0.362 0.164-0.393 0.172-0.034 0.008-0.074 0.032-0.092 0.053-0.016 0.021-0.040 0.037-0.050 0.037-0.026 0-0.929 0.43-1.056 0.504-0.050 0.029-0.182 0.095-0.29 0.145s-0.222 0.116-0.251 0.143c-0.029 0.026-0.082 0.061-0.119 0.077s-0.185 0.1-0.33 0.187c-0.354 0.214-0.539 0.298-0.805 0.367-0.319 0.084-0.454 0.132-0.51 0.18-0.024 0.024-0.071 0.055-0.106 0.071-0.079 0.040-0.301 0.383-0.341 0.528-0.024 0.095-0.024 0.182 0 0.399 0.021 0.206 0.024 0.317 0.003 0.415-0.016 0.071-0.018 0.14-0.008 0.153 0.058 0.050 0.325 0.090 0.763 0.111 0.874 0.042 0.911 0.048 0.911 0.164 0 0.045-0.071 0.090-0.415 0.251-0.23 0.108-0.436 0.211-0.457 0.227-0.021 0.018-0.103 0.053-0.177 0.079-0.082 0.024-0.14 0.061-0.14 0.082s0.008 0.037 0.021 0.037c0.018 0 0.14 0.095 0.29 0.23 0.037 0.034 0.082 0.061 0.1 0.061s0.037 0.008 0.042 0.018c0.005 0.013 0.050 0.050 0.1 0.087 0.071 0.050 0.135 0.066 0.275 0.074 0.18 0.011 0.444-0.029 0.502-0.077 0.074-0.061 0.28-0.206 0.412-0.29 0.351-0.227 0.465-0.296 0.562-0.33 0.103-0.037 0.76-0.169 0.837-0.169 0.021 0 0.148 0.090 0.277 0.198 0.161 0.135 0.259 0.198 0.306 0.198 0.040 0 0.121 0.018 0.185 0.042 0.14 0.050 0.309 0.034 0.631-0.061 0.253-0.071 0.415-0.153 0.589-0.293 0.063-0.055 0.143-0.116 0.174-0.137s0.111-0.108 0.174-0.19c0.069-0.087 0.145-0.158 0.185-0.169 0.161-0.040 0.116 0.079-0.148 0.409-0.219 0.267-0.496 0.496-0.686 0.562-0.048 0.016-0.161 0.069-0.253 0.116-0.1 0.053-0.209 0.090-0.264 0.090-0.053 0-0.174 0.024-0.269 0.053-0.169 0.050-0.185 0.063-0.597 0.481-0.729 0.739-1.011 1.117-1.735 2.302-0.385 0.636-0.478 0.768-0.642 0.927-0.415 0.401-0.737 0.824-0.866 1.143-0.069 0.161-0.114 0.238-0.132 0.224-0.050-0.029-0.37-0.269-0.428-0.322-0.045-0.040-0.251-0.182-0.401-0.28-0.135-0.087-0.343-0.298-0.599-0.607-0.293-0.354-0.518-0.657-0.518-0.697 0-0.069-0.193-0.512-0.251-0.576-0.034-0.037-0.071-0.077-0.085-0.090-0.011-0.013-0.061-0.055-0.108-0.095l-0.090-0.069-0.174 0.042c-0.098 0.024-0.282 0.055-0.415 0.071-0.164 0.018-0.283 0.050-0.383 0.1-0.153 0.077-0.187 0.124-0.478 0.71-0.058 0.114-0.18 0.267-0.404 0.504-0.177 0.187-0.351 0.38-0.385 0.43-0.14 0.195-0.755 0.782-1.122 1.064-0.121 0.092-0.203 0.267-0.28 0.586l-0.058 0.243 0.074 0.335c0.108 0.499 0.077 0.655-0.214 1.061-0.124 0.174-0.309 0.296-0.512 0.338-0.248 0.048-0.253 0.092-0.005 0.092 0.341 0 0.401 0.1 0.333 0.552-0.021 0.153-0.050 0.346-0.063 0.425-0.016 0.114-0.013 0.15 0.016 0.166 0.021 0.013 0.032 0.032 0.024 0.045-0.045 0.071 0.763 0.058 0.903-0.013 0.042-0.021 0.1-0.040 0.132-0.040 0.034 0 0.14-0.032 0.238-0.069 0.1-0.037 0.211-0.082 0.253-0.095 0.040-0.016 0.071-0.037 0.071-0.048s0.032-0.034 0.074-0.050c0.071-0.029 0.18-0.145 0.238-0.259 0.029-0.053 0.14-0.647 0.127-0.663-0.005-0.003-0.211-0.013-0.459-0.024l-0.449-0.016-0.013-0.082c-0.008-0.053 0-0.092 0.024-0.111 0.018-0.016 0.174-0.069 0.343-0.119 0.333-0.095 0.322-0.085 0.378-0.325 0.029-0.116 0.077-0.193 0.246-0.378 0.029-0.034 0.135-0.114 0.235-0.182 0.1-0.066 0.182-0.14 0.182-0.164 0-0.050-0.042-0.182-0.116-0.37-0.053-0.135-0.227-0.33-0.385-0.43l-0.063-0.042 0.084-0.129c0.048-0.077 0.28-0.309 0.544-0.547 0.251-0.23 0.539-0.499 0.634-0.599 0.148-0.156 0.187-0.185 0.261-0.185 0.066 0 0.103 0.024 0.166 0.1 0.045 0.053 0.161 0.187 0.256 0.296 0.219 0.248 0.586 0.824 0.679 1.069 0.040 0.1 0.090 0.227 0.114 0.277 0.021 0.050 0.071 0.235 0.108 0.409 0.082 0.38 0.092 0.417 0.169 0.56 0.053 0.1 0.090 0.129 0.333 0.246 0.151 0.074 0.319 0.143 0.375 0.15s0.158 0.042 0.227 0.077c0.069 0.034 0.151 0.063 0.182 0.063 0.055 0 0.058-0.003 0.034-0.285-0.045-0.533-0.032-0.705 0.066-0.956 0.103-0.256 0.132-0.298 0.198-0.275 0.034 0.013 0.042 0.034 0.032 0.087-0.074 0.306-0.066 0.66 0.024 1.085 0.021 0.103 0.040 0.222 0.040 0.261s0.024 0.145 0.055 0.235c0.066 0.195 0.053 0.222-0.119 0.267-0.156 0.040-0.277 0.021-0.927-0.135-0.457-0.111-0.607-0.158-0.858-0.277-0.372-0.177-0.655-0.272-0.813-0.272-0.185 0-0.327 0.132-0.459 0.42-0.055 0.127-0.132 0.283-0.166 0.351-0.114 0.211-0.114 0.314 0.008 0.671 0.193 0.57 0.238 0.834 0.296 1.74 0.077 1.162 0.114 1.45 0.198 1.568 0.037 0.053 0.1 0.143 0.137 0.201 0.055 0.082 0.121 0.129 0.285 0.209 0.116 0.055 0.23 0.111 0.251 0.124s0.058 0.032 0.079 0.042c0.203 0.092 0.554 0.383 0.554 0.459 0 0.029 0.024 0.119 0.055 0.203 0.045 0.119 0.058 0.219 0.061 0.486 0.005 0.187 0.013 0.346 0.024 0.354 0.008 0.008 0.042-0.026 0.077-0.079 0.050-0.079 0.077-0.095 0.153-0.095 0.082 0 0.124 0.032 0.359 0.259 0.148 0.14 0.288 0.296 0.317 0.343 0.053 0.092 0.151 0.135 0.219 0.092 0.153-0.095 0.454-0.731 0.57-1.209 0.066-0.264 0.061-0.594-0.013-0.787-0.050-0.135-0.346-0.523-0.393-0.52-0.008 0.003-0.121 0.222-0.253 0.488-0.246 0.504-0.256 0.515-0.393 0.462-0.058-0.021-0.066-0.034-0.050-0.111 0.026-0.145 0.166-0.525 0.261-0.713l0.090-0.177-0.127-0.018c-0.164-0.024-0.193-0.040-0.282-0.169-0.069-0.098-0.074-0.127-0.074-0.338 0-0.135 0.024-0.338 0.058-0.491 0.029-0.145 0.055-0.267 0.055-0.272 0-0.003-0.024-0.008-0.050-0.008-0.029 0-0.055-0.011-0.061-0.024-0.016-0.048-0.652-0.092-0.837-0.061-0.103 0.018-0.185 0.021-0.211 0.005-0.058-0.029-0.1-0.428-0.127-1.141l-0.016-0.515 0.063-0.016c0.132-0.037 0.275-0.016 0.599 0.090 0.185 0.061 0.341 0.119 0.348 0.129s0.042 0.029 0.079 0.040c0.037 0.011 0.071 0.029 0.079 0.040s0.082 0.055 0.164 0.1c0.082 0.042 0.143 0.084 0.135 0.092s0.029 0.024 0.079 0.032c0.066 0.013 0.090 0.029 0.079 0.055s0.008 0.037 0.053 0.037c0.037 0 0.079 0.016 0.090 0.032 0.011 0.018 0.050 0.050 0.087 0.071 0.148 0.084 0.169 0.098 0.214 0.135 0.079 0.069 0.116 0.092 0.156 0.1 0.021 0.005 0.063 0.032 0.095 0.061 0.029 0.026 0.066 0.050 0.082 0.050s0.034 0.018 0.045 0.040c0.008 0.021 0.037 0.040 0.066 0.040s0.063 0.016 0.074 0.037c0.011 0.018 0.114 0.079 0.23 0.132 0.114 0.053 0.261 0.129 0.33 0.169 0.066 0.040 0.312 0.135 0.544 0.211 0.372 0.121 0.449 0.137 0.642 0.137 0.235 0 0.211 0.013 0.375-0.195 0.111-0.143 0.253-0.444 0.304-0.636 0.024-0.087 0.053-0.282 0.069-0.436 0.050-0.502 0.050-0.502 0.1-0.502 0.066 0 0.082 0.069 0.1 0.422 0.011 0.216-0.003 0.446-0.042 0.805-0.063 0.581-0.066 0.62-0.024 0.62 0.016 0 0.069 0.029 0.116 0.066s0.098 0.066 0.111 0.066c0.016 0 0.032 0.011 0.037 0.021 0.011 0.029 0.378 0.243 0.415 0.243 0.016 0 0.021 0.018 0.013 0.040-0.013 0.029 0.003 0.040 0.053 0.040 0.040 0 0.077 0.016 0.085 0.037s0.042 0.045 0.079 0.053c0.034 0.011 0.063 0.029 0.063 0.045s0.098 0.074 0.219 0.132c0.119 0.055 0.235 0.114 0.256 0.127 0.341 0.203 0.552 0.319 0.586 0.319 0.024 0 0.048 0.016 0.055 0.037s0.050 0.045 0.095 0.055c0.045 0.011 0.082 0.029 0.082 0.042s0.021 0.024 0.050 0.024c0.026 0 0.079 0.024 0.116 0.053s0.092 0.053 0.121 0.053c0.032 0 0.055 0.016 0.055 0.040s0.016 0.032 0.040 0.024c0.021-0.011 0.071 0.005 0.114 0.032 0.153 0.103 0.428 0.224 0.758 0.333 0.19 0.061 0.348 0.121 0.351 0.132 0.005 0.013 0.045 0.021 0.090 0.021 0.121 0 0.354 0.066 0.7 0.201 0.172 0.066 0.383 0.132 0.47 0.145 0.087 0.016 0.238 0.050 0.333 0.077 0.095 0.029 0.203 0.053 0.24 0.053 0.034 0 0.074 0.011 0.087 0.024 0.016 0.013 0.193 0.048 0.396 0.079s0.422 0.069 0.488 0.084c0.114 0.026 0.288 0.048 0.818 0.1 0.14 0.016 0.393 0.050 0.568 0.079s0.393 0.061 0.488 0.071c0.095 0.011 0.209 0.034 0.253 0.053l0.079 0.034 0.034 0.364c0.066 0.747 0.090 0.924 0.156 1.143 0.037 0.124 0.082 0.256 0.103 0.296 0.032 0.063 0.029 0.084-0.016 0.166l-0.050 0.092-0.063-0.084c-0.18-0.24-0.51-1.038-0.562-1.36-0.034-0.214 0.021-0.195-0.858-0.269-0.195-0.018-0.399-0.042-0.449-0.055s-0.187-0.032-0.304-0.042c-0.116-0.011-0.256-0.034-0.314-0.053-0.055-0.021-0.132-0.037-0.166-0.037-0.079 0-0.077 0.021 0.063 0.396 0.267 0.713 0.496 1.127 0.811 1.452 0.103 0.108 0.246 0.267 0.317 0.349 0.071 0.084 0.143 0.153 0.158 0.156 0.016 0 0.074 0.050 0.127 0.111s0.185 0.206 0.293 0.325c0.301 0.325 0.288 0.277 0.293 1.064 0.003 0.869-0.021 0.998-0.246 1.294-0.082 0.111-0.256 0.354-0.385 0.544-0.517 0.755-0.768 1.043-1.178 1.333-0.349 0.251-0.517 0.409-0.76 0.723-0.114 0.145-0.23 0.288-0.259 0.314-0.079 0.069-0.362 0.174-0.649 0.24-0.253 0.058-0.256 0.058-0.203 0.108 0.095 0.087 0.058 0.277-0.148 0.731-0.129 0.282-0.222 0.541-0.222 0.615 0 0.037 0.203 0.103 0.449 0.145 0.206 0.037 0.882 0.037 0.95 0 0.026-0.016 0.111-0.026 0.187-0.026 0.187 0 0.343-0.082 0.554-0.29 0.116-0.116 0.201-0.23 0.256-0.346 0.129-0.269 0.135-0.261-0.206-0.314-0.095-0.016-0.261-0.042-0.37-0.063l-0.198-0.034 0.005-0.124c0.003-0.069 0.011-0.135 0.021-0.143 0.011-0.011 0.18-0.016 0.375-0.011 0.203 0.005 0.393-0.005 0.441-0.021 0.045-0.013 0.148-0.092 0.227-0.174s0.187-0.169 0.238-0.195c0.135-0.066 0.547-0.185 0.842-0.235l0.253-0.045 0.008-0.172c0.011-0.238-0.008-0.314-0.127-0.494-0.058-0.087-0.106-0.172-0.106-0.19 0-0.069 0.7-0.969 0.937-1.207 0.222-0.224 0.267-0.256 0.547-0.388 0.275-0.129 0.734-0.407 0.882-0.536 0.032-0.026 0.090-0.106 0.129-0.174l0.074-0.127-0.082-0.507c-0.121-0.755-0.124-0.784-0.077-0.784 0.024 0 0.058 0.016 0.077 0.034 0.037 0.034 0.137 0.106 0.61 0.422 0.156 0.103 0.282 0.203 0.282 0.222s0.018 0.034 0.040 0.034c0.024 0 0.166 0.061 0.317 0.132 0.153 0.074 0.341 0.156 0.417 0.185 0.074 0.032 0.161 0.066 0.19 0.079s0.095 0.029 0.145 0.040c0.074 0.013 0.132 0.061 0.277 0.23 0.103 0.116 0.296 0.338 0.43 0.491 0.137 0.156 0.301 0.354 0.367 0.438 0.143 0.193 0.143 0.209-0.024 0.679-0.256 0.713-0.686 1.476-1.075 1.898-0.306 0.335-0.454 0.512-0.618 0.742-0.066 0.098-0.18 0.227-0.248 0.288-0.148 0.132-0.491 0.306-0.787 0.407-0.116 0.040-0.227 0.077-0.246 0.082-0.026 0.011-0.021 0.029 0.018 0.082 0.032 0.040 0.055 0.103 0.055 0.143 0 0.161-0.185 0.589-0.37 0.861-0.074 0.106-0.132 0.211-0.132 0.232 0 0.058 0.061 0.082 0.372 0.161 0.512 0.129 1.394 0.119 1.695-0.021 0.264-0.124 0.478-0.37 0.594-0.681l0.055-0.151-0.071-0.029c-0.069-0.026-0.285-0.058-0.726-0.111-0.114-0.013-0.216-0.029-0.232-0.037-0.026-0.018 0.034-0.153 0.103-0.232 0.034-0.040 0.095-0.045 0.481-0.045h0.438l0.14-0.182c0.172-0.227 0.356-0.401 0.502-0.478 0.145-0.071 0.465-0.151 0.721-0.172 0.224-0.021 0.232-0.029 0.232-0.246 0-0.182-0.111-0.38-0.338-0.605-0.145-0.143-0.124-0.227 0.296-1.159 0.235-0.517 0.285-0.602 0.649-1.056 0.465-0.584 0.576-0.824 0.589-1.267l0.005-0.238-0.174-0.177c-0.095-0.098-0.187-0.177-0.203-0.177-0.018 0-0.045-0.024-0.063-0.053s-0.048-0.053-0.066-0.053c-0.063 0-0.531-0.618-0.966-1.281-0.058-0.087-0.158-0.206-0.222-0.264-0.071-0.066-0.116-0.129-0.119-0.172-0.005-0.074 0.124-0.306 0.605-1.104 0.478-0.789 0.758-1.399 0.921-2.001 0.061-0.222 0.071-0.314 0.071-0.618 0.003-0.346-0.018-0.459-0.124-0.713-0.024-0.055 0.121-0.132 0.248-0.132 0.098 0 0.106 0.005 0.23 0.211 0.069 0.116 0.135 0.211 0.145 0.211s0.074 0.042 0.143 0.092c0.066 0.050 0.143 0.092 0.172 0.092 0.026 0 0.050 0.018 0.050 0.040 0 0.026 0.026 0.040 0.077 0.040 0.042 0 0.095 0.018 0.116 0.040 0.021 0.018 0.066 0.045 0.1 0.053 0.119 0.032 0.275 0.161 0.333 0.277 0.090 0.177 0.077 0.33-0.050 0.655-0.029 0.077-0.050 0.145-0.042 0.151 0.005 0.008 0.069-0.090 0.14-0.219 0.071-0.127 0.169-0.288 0.216-0.359 0.079-0.111 0.095-0.158 0.119-0.375 0.032-0.269 0.053-0.29 0.135-0.14 0.026 0.050 0.084 0.124 0.129 0.169 0.074 0.074 0.092 0.079 0.372 0.095 0.219 0.011 0.317 0.029 0.38 0.066 0.048 0.026 0.087 0.058 0.087 0.069 0 0.040 0.1 0.021 0.116-0.021 0.021-0.058-0.032-0.38-0.074-0.446-0.021-0.029-0.103-0.129-0.187-0.222-0.084-0.095-0.177-0.224-0.203-0.285-0.029-0.063-0.103-0.164-0.169-0.224-0.063-0.058-0.116-0.116-0.116-0.129 0-0.042 0.185-0.026 0.201 0.016 0.011 0.021 0.037 0.040 0.063 0.040 0.024 0 0.074 0.026 0.108 0.055 0.058 0.050 0.084 0.055 0.296 0.040 0.201-0.013 0.246-0.008 0.335 0.037 0.121 0.063 0.248 0.066 0.351 0.013 0.042-0.021 0.137-0.045 0.211-0.053 0.346-0.040 0.349-0.042 0.259-0.222-0.045-0.084-0.079-0.108-0.246-0.172-0.129-0.050-0.232-0.114-0.312-0.19-0.082-0.079-0.143-0.116-0.19-0.116-0.098 0-0.151-0.092-0.090-0.156 0.034-0.032 0.092-0.042 0.251-0.040 0.19 0.003 0.219 0.011 0.37 0.103 0.135 0.082 0.182 0.095 0.259 0.084 0.084-0.016 0.312-0.143 0.388-0.216 0.016-0.018 0.074-0.040 0.129-0.050l0.098-0.018-0.040-0.077c-0.045-0.087-0.161-0.158-0.261-0.158-0.034 0-0.082-0.016-0.1-0.034-0.018-0.021-0.066-0.045-0.103-0.053-0.040-0.011-0.148-0.095-0.246-0.19-0.095-0.095-0.19-0.172-0.211-0.172-0.040 0-0.074-0.063-0.050-0.090 0.011-0.008 0.082-0.016 0.161-0.016 0.119 0 0.187-0.021 0.362-0.108 0.224-0.111 0.488-0.164 0.525-0.106 0.024 0.040 0.232 0.037 0.325-0.003 0.124-0.053 0.222-0.206 0.129-0.206-0.021 0-0.042-0.018-0.050-0.040-0.011-0.021-0.087-0.074-0.174-0.119-0.087-0.042-0.201-0.116-0.253-0.161-0.127-0.111-0.227-0.129-0.649-0.111-0.33 0.013-0.375 0.011-0.491-0.040-0.069-0.029-0.211-0.063-0.317-0.071-0.164-0.016-0.216-0.011-0.412 0.053-0.124 0.040-0.251 0.066-0.285 0.061-0.061-0.008-0.058-0.016 0.058-0.127 0.156-0.153 0.391-0.296 0.599-0.367 0.137-0.045 0.227-0.055 0.544-0.055 0.486 0 0.7-0.061 0.919-0.259l0.071-0.066 0.544 0.063 0.132-0.071c0.074-0.040 0.166-0.103 0.211-0.137 0.069-0.058 0.095-0.063 0.256-0.053 0.156 0.013 0.19 0.005 0.269-0.048 0.050-0.034 0.1-0.063 0.108-0.063 0.021 0 0.116-0.111 0.119-0.135 0-0.008-0.032-0.029-0.071-0.048s-0.193-0.108-0.343-0.203l-0.269-0.169h-0.201c-0.153 0-0.203-0.008-0.214-0.040-0.011-0.021-0.045-0.040-0.079-0.040s-0.063-0.013-0.063-0.029c0-0.013 0.013-0.018 0.026-0.011 0.016 0.011 0.106-0.008 0.198-0.037 0.092-0.032 0.187-0.055 0.211-0.055 0.021 0 0.040-0.011 0.040-0.026 0-0.037 0.211-0.15 0.346-0.185 0.108-0.026 0.137-0.024 0.29 0.040 0.227 0.092 0.385 0.114 0.409 0.055 0.008-0.024 0.040-0.042 0.066-0.042s0.066-0.034 0.090-0.077l0.040-0.077-0.114-0.018c-0.116-0.018-0.333-0.161-0.335-0.219 0-0.016-0.018-0.032-0.042-0.032s-0.077-0.029-0.119-0.063c-0.084-0.074-0.28-0.121-0.481-0.121-0.121 0-0.156-0.013-0.282-0.108-0.148-0.111-0.38-0.235-0.444-0.235-0.021 0-0.032-0.021-0.026-0.048 0.011-0.063 0.156-0.071 0.314-0.021 0.222 0.074 0.359 0.055 0.634-0.077 0.261-0.127 0.343-0.143 0.462-0.079 0.042 0.021 0.106 0.040 0.145 0.040 0.037 0 0.082 0.016 0.1 0.032 0.050 0.053 0.341 0.040 0.481-0.024 0.116-0.053 0.251-0.195 0.217-0.23-0.008-0.008-0.045-0.016-0.077-0.016-0.145 0-0.415-0.132-0.591-0.29-0.098-0.087-0.195-0.158-0.217-0.158-0.018 0-0.058-0.016-0.087-0.037-0.037-0.024-0.19-0.040-0.481-0.053-0.412-0.018-0.436-0.021-0.594-0.103-0.211-0.108-0.301-0.14-0.422-0.161-0.053-0.011-0.1-0.029-0.106-0.045-0.005-0.013-0.1-0.034-0.214-0.045s-0.209-0.032-0.211-0.045c-0.003-0.016 0.084-0.071 0.193-0.124 0.19-0.095 0.209-0.098 0.481-0.1 0.187 0 0.314 0.013 0.37 0.037 0.148 0.063 0.491 0.103 0.972 0.114l0.462 0.011 0.153-0.085c0.084-0.045 0.174-0.114 0.198-0.15 0.024-0.040 0.066-0.092 0.095-0.119 0.040-0.042 0.045-0.082 0.037-0.24-0.011-0.211-0.090-0.401-0.272-0.636-0.098-0.129-0.119-0.216-0.055-0.24 0.021-0.008 0.132 0.011 0.246 0.042 0.243 0.069 0.388 0.071 0.446 0.016 0.021-0.024 0.055-0.042 0.071-0.042 0.055 0 0.132-0.201 0.114-0.293-0.026-0.132-0.185-0.37-0.351-0.528-0.251-0.235-0.62-0.525-0.668-0.525-0.024 0-0.106-0.042-0.185-0.092-0.158-0.1-0.185-0.108-0.185-0.061 0 0.018 0.063 0.077 0.14 0.127 0.19 0.127 0.562 0.507 0.613 0.623 0.040 0.098 0.053 0.238 0.024 0.312-0.016 0.042-0.077 0.032-0.145-0.026-0.058-0.053-0.47-0.077-0.549-0.032-0.182 0.095-0.235 0.433-0.1 0.613 0.042 0.053 0.077 0.129 0.077 0.169 0.003 0.077-0.045 0.19-0.095 0.222-0.053 0.037-0.378 0.024-0.409-0.016-0.016-0.018-0.084-0.042-0.153-0.050s-0.129-0.026-0.135-0.042c-0.005-0.016-0.026-0.029-0.050-0.029-0.063 0-0.945-0.296-0.953-0.319-0.005-0.013-0.042-0.024-0.079-0.024-0.040 0-0.19-0.037-0.335-0.082-0.248-0.077-0.296-0.082-0.805-0.095-0.589-0.016-0.734 0.005-1.022 0.137-0.238 0.108-0.52 0.449-0.895 1.082-0.084 0.145-0.174 0.283-0.195 0.306s-0.053 0.063-0.069 0.092c-0.018 0.026-0.040 0.040-0.053 0.029-0.011-0.011 0.040-0.145 0.114-0.296 0.082-0.158 0.145-0.327 0.156-0.404 0.024-0.193-0.048-0.404-0.187-0.547-0.061-0.061-0.187-0.206-0.282-0.319-0.145-0.177-0.219-0.235-0.451-0.375-0.153-0.090-0.29-0.182-0.309-0.203-0.037-0.045-0.095-0.053-0.119-0.013-0.008 0.016 0.013 0.037 0.050 0.053 0.037 0.013 0.069 0.037 0.069 0.053 0 0.013 0.024 0.026 0.050 0.026 0.063 0 0.636 0.597 0.636 0.663 0 0.026 0.013 0.055 0.026 0.063 0.016 0.008 0.026 0.095 0.026 0.193 0 0.259-0.084 0.391-0.43 0.676-0.309 0.253-0.383 0.341-0.494 0.578-0.251 0.536-0.151 1.199 0.404 2.672 0.108 0.29 0.216 0.599 0.24 0.686 0.071 0.28 0.098 0.589 0.069 0.805-0.013 0.108-0.037 0.312-0.053 0.449-0.034 0.309-0.132 0.536-0.267 0.62-0.024 0.013-0.092 0.066-0.156 0.114-0.066 0.050-0.145 0.084-0.19 0.084-0.042 0-0.082 0.016-0.090 0.040-0.013 0.032-0.082 0.040-0.391 0.040-0.37 0-0.375 0-0.634-0.103-0.143-0.055-0.267-0.114-0.277-0.127-0.008-0.013-0.092-0.077-0.187-0.145-0.193-0.135-0.636-0.507-0.821-0.686-0.177-0.172-0.523-0.441-0.631-0.488-0.021-0.008-0.153-0.092-0.293-0.185-0.33-0.216-0.367-0.23-0.797-0.296-0.362-0.055-1.030-0.203-1.262-0.28-0.069-0.021-0.145-0.040-0.172-0.040-0.029 0-0.084-0.018-0.127-0.040s-0.124-0.048-0.185-0.055c-0.058-0.011-0.121-0.029-0.14-0.042-0.016-0.013-0.106-0.045-0.201-0.071-0.092-0.026-0.198-0.066-0.232-0.085s-0.153-0.066-0.261-0.103c-0.681-0.246-0.89-0.327-0.924-0.356-0.021-0.018-0.071-0.040-0.111-0.050-0.042-0.008-0.074-0.029-0.074-0.042 0-0.016-0.016-0.026-0.037-0.026-0.034 0-0.277-0.124-0.306-0.158-0.008-0.008-0.079-0.042-0.158-0.079-0.169-0.077-0.478-0.277-0.605-0.393-0.048-0.045-0.106-0.082-0.127-0.082-0.018 0-0.042-0.018-0.050-0.040s-0.092-0.087-0.185-0.145c-0.095-0.058-0.164-0.119-0.156-0.129 0.008-0.013-0.098-0.108-0.232-0.209-0.433-0.33-0.467-0.401-0.364-0.742 0.050-0.164 0.079-0.209 0.222-0.348 0.090-0.087 0.195-0.18 0.238-0.203 0.040-0.024 0.071-0.053 0.071-0.063s0.016-0.021 0.034-0.021c0.077 0.003 0.652-0.198 0.652-0.224 0-0.061-0.214-0.187-0.436-0.261-0.256-0.082-0.457-0.209-0.462-0.288 0-0.042 0.211-0.016 0.346 0.045 0.267 0.116 0.391 0.129 0.816 0.085 0.465-0.053 0.415-0.050 0.541-0.018 0.121 0.032 0.285 0.037 0.404 0.013 0.077-0.016 0.079-0.021 0.048-0.066-0.018-0.029-0.1-0.098-0.18-0.153-0.082-0.055-0.172-0.127-0.201-0.156-0.055-0.055-0.264-0.111-0.415-0.111-0.050 0-0.129-0.016-0.177-0.037s-0.132-0.048-0.185-0.055c-0.055-0.008-0.1-0.024-0.1-0.037 0-0.011-0.050-0.048-0.111-0.082-0.156-0.087-0.216-0.148-0.198-0.195 0.021-0.053 0.063-0.053 0.209-0.005 0.177 0.061 0.454 0.119 0.481 0.103 0.021-0.016 0.238-0.061 0.531-0.114 0.074-0.013 0.325-0.024 0.557-0.024 0.467-0.003 0.591-0.018 0.591-0.071 0-0.055-0.187-0.169-0.282-0.169-0.045 0-0.092-0.013-0.1-0.029-0.011-0.016-0.106-0.066-0.211-0.116-0.185-0.085-0.797-0.224-0.98-0.224-0.090 0-0.393-0.227-0.393-0.29 0-0.032 0.053-0.042 0.232-0.053 0.145-0.011 0.24-0.026 0.253-0.048s0.124-0.042 0.304-0.055c0.156-0.013 0.29-0.029 0.298-0.037 0.048-0.048-0.164-0.15-0.467-0.23-0.124-0.032-0.243-0.069-0.264-0.082s-0.071-0.037-0.114-0.053c-0.040-0.016-0.084-0.053-0.1-0.079-0.040-0.079 0.079-0.114 0.306-0.087 0.103 0.011 0.309 0.021 0.462 0.021 0.261 0 0.288-0.005 0.454-0.087 0.1-0.048 0.185-0.098 0.195-0.111 0.024-0.040 0.275-0.026 0.523 0.029 0.333 0.074 0.494 0.069 0.639-0.016 0.063-0.037 0.116-0.079 0.116-0.090 0-0.063-0.040-0.106-0.098-0.106-0.034 0-0.198-0.061-0.362-0.132-0.164-0.074-0.335-0.132-0.38-0.132s-0.151-0.018-0.235-0.040c-0.084-0.021-0.267-0.040-0.417-0.040-0.177 0-0.288-0.013-0.335-0.037-0.042-0.021-0.127-0.048-0.193-0.058-0.066-0.008-0.119-0.026-0.119-0.037s-0.040-0.034-0.084-0.050c-0.098-0.034-0.259-0.137-0.259-0.169 0-0.011 0.193-0.018 0.43-0.018 0.449 0 0.584-0.024 1.048-0.185 0.119-0.040 0.243-0.053 0.665-0.061 0.438-0.008 0.525-0.018 0.562-0.053 0.024-0.026 0.058-0.045 0.077-0.045 0.037 0 0.137-0.1 0.119-0.116-0.005-0.005-0.1-0.034-0.209-0.069-0.108-0.032-0.28-0.1-0.383-0.153l-0.185-0.098-0.62 0.008c-0.586 0.008-0.628 0.005-0.75-0.048-0.151-0.063-0.544-0.293-0.544-0.314 0-0.008 0.050-0.050 0.108-0.095 0.121-0.090 0.124-0.143 0.003-0.195-0.048-0.021-0.082-0.050-0.077-0.066s0.098-0.048 0.206-0.074c0.312-0.077 0.591-0.156 0.605-0.177 0.008-0.011 0.053-0.048 0.103-0.082 0.079-0.055 0.132-0.066 0.449-0.082 0.198-0.011 0.425-0.037 0.507-0.058 0.172-0.042 0.393-0.164 0.393-0.214 0-0.074-0.095-0.121-0.243-0.121-0.106 0-0.193-0.021-0.317-0.077-0.354-0.161-0.758-0.222-0.995-0.151-0.161 0.048-0.832 0.061-0.861 0.016-0.008-0.013-0.084-0.045-0.172-0.069-0.211-0.058-0.235-0.092-0.127-0.174 0.108-0.079 0.285-0.153 0.581-0.243 0.127-0.040 0.235-0.079 0.243-0.092 0.026-0.040-0.045-0.077-0.314-0.156-0.214-0.063-0.338-0.082-0.652-0.098-0.28-0.013-0.422-0.032-0.515-0.066-0.071-0.029-0.103-0.050-0.071-0.053 0.029 0 0.066-0.013 0.079-0.026 0.016-0.016 0.153-0.040 0.306-0.053 0.325-0.032 0.391-0.053 0.747-0.235 0.285-0.145 0.457-0.19 0.581-0.156 0.053 0.016 0.158 0.008 0.312-0.021 0.206-0.040 0.24-0.053 0.298-0.129 0.1-0.132 0.087-0.145-0.132-0.145-0.108 0-0.203-0.011-0.211-0.024-0.008-0.011-0.077-0.029-0.151-0.040s-0.153-0.037-0.174-0.058c-0.021-0.018-0.079-0.037-0.129-0.037-0.058 0-0.098-0.016-0.106-0.040-0.011-0.026-0.053-0.040-0.114-0.040-0.055 0-0.216-0.026-0.362-0.058-0.246-0.055-0.319-0.058-1.151-0.053-0.491 0.003-0.892-0.003-0.892-0.016 0-0.063 0.24-0.182 0.568-0.28 0.285-0.087 0.412-0.135 0.433-0.166 0.008-0.016 0.040-0.034 0.071-0.045 0.029-0.008 0.079-0.063 0.111-0.119 0.050-0.087 0.053-0.106 0.018-0.119-0.021-0.008-0.048 0.003-0.061 0.024-0.018 0.034-0.045 0.034-0.203 0-0.103-0.021-0.222-0.040-0.264-0.040-0.045 0-0.092-0.011-0.106-0.024-0.016-0.011-0.092-0.045-0.172-0.071-0.119-0.042-0.248-0.053-0.713-0.063l-0.568-0.013 0.092-0.053c0.050-0.026 0.166-0.082 0.256-0.121 0.174-0.077 0.325-0.172 0.325-0.209 0-0.013-0.074-0.018-0.164-0.011-0.092 0.008-0.356-0.005-0.589-0.032-0.232-0.024-0.488-0.045-0.568-0.048l-0.145-0.003-0.021 0.119c-0.013 0.066-0.063 0.312-0.114 0.547-0.098 0.459-0.108 0.589-0.055 0.589 0.016 0 0.090 0.045 0.158 0.098 0.702 0.549 1.257 1.244 1.669 2.102 0.312 0.644 0.425 1.032 0.488 1.679 0.087 0.892-0.071 2.36-0.388 3.593-0.187 0.729-0.438 1.597-0.467 1.616-0.053 0.034-0.095 0.024-0.095-0.026 0-0.029-0.024-0.071-0.053-0.098s-0.053-0.066-0.053-0.085c0-0.021-0.024-0.069-0.053-0.106-0.069-0.087-0.066-0.172 0.011-0.422 0.106-0.338 0.404-1.471 0.502-1.896 0.206-0.906 0.28-1.6 0.224-2.176-0.018-0.198-0.032-0.396-0.029-0.438 0.005-0.103-0.185-0.869-0.288-1.167-0.098-0.277-0.388-0.869-0.518-1.046-0.335-0.473-0.969-1.178-1.056-1.18-0.016 0-0.090-0.048-0.164-0.106s-0.14-0.106-0.148-0.106c-0.008 0-0.034-0.021-0.063-0.048-0.026-0.024-0.135-0.092-0.238-0.151s-0.187-0.114-0.187-0.127c0-0.011 0.048-0.018 0.106-0.018 0.121 0 0.219-0.082 0.251-0.206 0.011-0.040 0.034-0.108 0.055-0.151 0.018-0.045 0.053-0.198 0.074-0.343s0.071-0.47 0.108-0.723c0.037-0.253 0.066-0.502 0.061-0.554-0.008-0.085-0.024-0.061-0.148 0.248zM10.68 2.793c0.14 0.098 0.177 0.174 0.161 0.333-0.026 0.235-0.132 0.309-0.396 0.269-0.1-0.016-0.14-0.042-0.269-0.182s-0.166-0.164-0.267-0.177c-0.121-0.013-0.156-0.061-0.055-0.074 0.034-0.005 0.077-0.024 0.095-0.040s0.145-0.055 0.277-0.090c0.135-0.034 0.253-0.074 0.269-0.090 0.037-0.037 0.071-0.029 0.185 0.050zM7.535 4.132c0.008 0.021 0.032 0.040 0.055 0.040 0.063 0 0.145 0.158 0.145 0.285 0 0.098-0.016 0.132-0.090 0.206-0.082 0.082-0.106 0.090-0.24 0.090h-0.148l0.079-0.098c0.098-0.119 0.1-0.153 0.024-0.309-0.045-0.095-0.071-0.121-0.145-0.135-0.048-0.008-0.1-0.008-0.114 0-0.016 0.008-0.026 0.003-0.026-0.011 0-0.016 0.024-0.029 0.053-0.029s0.061-0.018 0.069-0.040c0.013-0.029 0.058-0.040 0.169-0.040s0.156 0.011 0.169 0.040z"></path>
</symbol>
</defs>
</svg>
