<?xml version="1.0" standalone="no"?>
<!DOCTYPE svg PUBLIC "-//W3C//DTD SVG 20010904//EN"
 "http://www.w3.org/TR/2001/REC-SVG-20010904/DTD/svg10.dtd">
<svg version="1.0" xmlns="http://www.w3.org/2000/svg"
 width="1280.000000pt" height="1212.000000pt" viewBox="0 0 1280.000000 1212.000000"
 preserveAspectRatio="xMidYMid meet">
<metadata>
Created by potrace 1.15, written by Peter Selinger 2001-2017
</metadata>
<g transform="translate(0.000000,1212.000000) scale(0.100000,-0.100000)"
fill="#000000" stroke="none">
<path d="M5152 11985 c-29 -71 -73 -159 -97 -195 -47 -68 -128 -145 -183 -174
-18 -9 -41 -25 -50 -34 -9 -9 -43 -34 -74 -55 -48 -31 -59 -45 -73 -87 -10
-31 -27 -57 -42 -67 -24 -16 -26 -16 -39 2 -19 25 -18 34 11 118 28 80 52 106
124 133 25 9 58 25 73 36 15 10 40 23 57 29 26 9 48 35 38 45 -4 4 -73 15
-207 35 -132 19 -227 -7 -268 -73 -18 -29 -41 -102 -56 -178 -4 -20 -17 -29
-71 -48 -36 -12 -123 -50 -192 -83 -70 -33 -137 -62 -149 -65 -13 -3 -28 -12
-35 -20 -6 -8 -15 -14 -19 -14 -10 0 -352 -163 -400 -191 -19 -11 -69 -36
-110 -55 -41 -19 -84 -44 -95 -54 -11 -10 -31 -23 -45 -29 -14 -6 -70 -38
-125 -71 -134 -81 -204 -113 -305 -139 -121 -32 -172 -50 -193 -68 -9 -9 -27
-21 -40 -27 -30 -15 -114 -145 -129 -200 -9 -36 -9 -69 0 -151 8 -78 9 -120 1
-157 -6 -27 -7 -53 -3 -58 22 -19 123 -34 289 -42 331 -16 345 -18 345 -62 0
-17 -27 -34 -157 -95 -87 -41 -165 -80 -173 -86 -8 -7 -39 -20 -67 -30 -31 -9
-53 -23 -53 -31 0 -8 3 -14 8 -14 7 0 53 -36 110 -87 14 -13 31 -23 38 -23 7
0 14 -3 16 -7 2 -5 19 -19 38 -33 27 -19 51 -25 104 -28 68 -4 168 11 190 29
28 23 106 78 156 110 133 86 176 112 213 125 39 14 288 64 317 64 8 0 56 -34
105 -75 61 -51 98 -75 116 -75 15 0 46 -7 70 -16 53 -19 117 -13 239 23 96 27
157 58 223 111 24 21 54 44 66 52 12 8 42 41 66 72 26 33 55 60 70 64 61 15
44 -30 -56 -155 -83 -101 -188 -188 -260 -213 -18 -6 -61 -26 -96 -44 -38 -20
-79 -34 -100 -34 -20 0 -66 -9 -102 -20 -64 -19 -70 -24 -226 -182 -276 -280
-383 -423 -657 -872 -146 -241 -181 -291 -243 -351 -157 -152 -279 -312 -328
-433 -26 -61 -43 -90 -50 -85 -19 11 -140 102 -162 122 -17 15 -95 69 -152
106 -51 33 -130 113 -227 230 -111 134 -196 249 -196 264 0 26 -73 194 -95
218 -13 14 -27 29 -32 34 -4 5 -23 21 -41 36 l-34 26 -66 -16 c-37 -9 -107
-21 -157 -27 -62 -7 -107 -19 -145 -38 -58 -29 -71 -47 -181 -269 -22 -43 -68
-101 -153 -191 -67 -71 -133 -144 -146 -163 -53 -74 -286 -296 -425 -403 -46
-35 -77 -101 -106 -222 l-22 -92 28 -127 c41 -189 29 -248 -81 -402 -47 -66
-117 -112 -194 -128 -94 -18 -96 -35 -2 -35 129 0 152 -38 126 -209 -8 -58
-19 -131 -24 -161 -6 -43 -5 -57 6 -63 8 -5 12 -12 9 -17 -17 -27 289 -22 342
5 16 8 38 15 50 15 13 0 53 12 90 26 38 14 80 31 96 36 15 6 27 14 27 18 0 4
12 13 28 19 27 11 68 55 90 98 11 20 53 245 48 251 -2 1 -80 5 -174 9 l-170 6
-5 31 c-3 20 0 35 9 42 7 6 66 26 130 45 126 36 122 32 143 123 11 44 29 73
93 143 11 13 51 43 89 69 38 25 69 53 69 62 0 19 -16 69 -44 140 -20 51 -86
125 -146 163 l-24 16 32 49 c18 29 106 117 206 207 95 87 204 189 240 227 56
59 71 70 99 70 25 0 39 -9 63 -38 17 -20 61 -71 97 -112 83 -94 222 -312 257
-405 15 -38 34 -86 43 -105 8 -19 27 -89 41 -155 31 -144 35 -158 64 -212 20
-38 34 -49 126 -93 57 -28 121 -54 142 -57 21 -3 60 -16 86 -29 26 -13 57 -24
69 -24 21 0 22 1 13 108 -17 202 -12 267 25 362 39 97 50 113 75 104 13 -5 16
-13 12 -33 -28 -116 -25 -250 9 -411 8 -39 15 -84 15 -99 0 -15 9 -55 21 -89
25 -74 20 -84 -45 -101 -59 -15 -105 -8 -351 51 -173 42 -230 60 -325 105
-141 67 -248 103 -308 103 -70 0 -124 -50 -174 -159 -21 -48 -50 -107 -63
-133 -43 -80 -43 -119 3 -254 73 -216 90 -316 112 -659 29 -440 43 -549 75
-594 14 -20 38 -54 52 -76 21 -31 46 -49 108 -79 44 -21 87 -42 95 -47 8 -5
22 -12 30 -16 77 -35 210 -145 210 -174 0 -11 9 -45 21 -77 17 -45 22 -83 23
-184 2 -71 5 -131 9 -134 3 -3 16 10 29 30 19 30 29 36 58 36 31 0 47 -12 136
-98 56 -53 109 -112 120 -130 20 -35 57 -51 83 -35 58 36 172 277 216 458 25
100 23 225 -5 298 -19 51 -131 198 -149 197 -3 -1 -46 -84 -96 -185 -93 -191
-97 -195 -149 -175 -22 8 -25 13 -19 42 10 55 63 199 99 270 l34 67 -48 7
c-62 9 -73 15 -107 64 -26 37 -28 48 -28 128 0 51 9 128 22 186 11 55 21 101
21 103 0 1 -9 3 -19 3 -11 0 -21 4 -23 9 -6 18 -247 35 -317 23 -39 -7 -70 -8
-80 -2 -22 11 -38 162 -48 432 l-6 195 24 6 c50 14 104 6 227 -34 70 -23 129
-45 132 -49 3 -4 16 -11 30 -15 14 -4 27 -11 30 -15 3 -4 31 -21 62 -38 31
-16 54 -32 51 -35 -3 -3 11 -9 30 -12 25 -5 34 -11 30 -21 -4 -10 3 -14 20
-14 14 0 30 -6 34 -12 4 -7 19 -19 33 -27 56 -32 64 -37 81 -51 30 -26 44 -35
59 -38 8 -2 24 -12 36 -23 11 -10 25 -19 31 -19 6 0 13 -7 17 -15 3 -8 14 -15
25 -15 11 0 24 -6 28 -14 4 -7 43 -30 87 -50 43 -20 99 -49 125 -64 25 -15
118 -51 206 -80 141 -46 170 -52 243 -52 89 0 80 -5 142 74 42 54 96 168 115
241 9 33 20 107 26 165 19 190 19 190 38 190 25 0 31 -26 38 -160 4 -82 -1
-169 -16 -305 -24 -220 -25 -235 -9 -235 6 0 26 -11 44 -25 18 -14 37 -25 42
-25 6 0 12 -4 14 -8 4 -11 143 -92 157 -92 6 0 8 -7 5 -15 -5 -11 1 -15 20
-15 15 0 29 -6 32 -14 3 -8 16 -17 30 -20 13 -4 24 -11 24 -17 0 -6 37 -28 83
-50 45 -21 89 -43 97 -48 129 -77 209 -121 222 -121 9 0 18 -6 21 -14 3 -8 19
-17 36 -21 17 -4 31 -11 31 -16 0 -5 8 -9 19 -9 10 0 30 -9 44 -20 14 -11 35
-20 46 -20 12 0 21 -6 21 -15 0 -9 6 -12 15 -9 8 4 27 -2 43 -12 58 -39 162
-85 287 -126 72 -23 132 -46 133 -50 2 -5 17 -8 34 -8 46 0 134 -25 265 -76
65 -25 145 -50 178 -55 33 -6 90 -19 126 -29 36 -11 77 -20 91 -20 13 0 28 -4
33 -9 6 -5 73 -18 150 -30 77 -12 160 -26 185 -32 43 -10 109 -18 310 -38 53
-6 149 -19 215 -30 66 -11 149 -23 185 -27 36 -4 79 -13 96 -20 l30 -13 13
-138 c25 -283 34 -350 59 -433 14 -47 31 -97 39 -112 12 -24 11 -32 -6 -63
l-19 -35 -24 32 c-68 91 -193 393 -213 515 -13 81 8 74 -325 102 -74 7 -151
16 -170 21 -19 5 -71 12 -115 16 -44 4 -97 13 -119 20 -21 8 -50 14 -63 14
-30 0 -29 -8 24 -150 101 -270 188 -427 307 -550 39 -41 93 -101 120 -132 27
-32 54 -58 60 -59 6 0 28 -19 48 -42 20 -23 70 -78 111 -123 114 -123 109
-105 111 -403 1 -329 -8 -378 -93 -490 -31 -42 -97 -134 -146 -206 -196 -286
-291 -395 -446 -505 -132 -95 -196 -155 -288 -274 -43 -55 -87 -109 -98 -119
-30 -26 -137 -66 -246 -91 -96 -22 -97 -22 -77 -41 36 -33 22 -105 -56 -277
-49 -107 -84 -205 -84 -233 0 -14 77 -39 170 -55 78 -14 334 -14 360 0 10 6
42 10 71 10 71 0 130 31 210 110 44 44 76 87 97 131 49 102 51 99 -78 119 -36
6 -99 16 -140 24 l-75 13 2 47 c1 26 4 51 8 54 4 4 68 6 142 4 77 -2 149 2
167 8 17 5 56 35 86 66 30 31 71 64 90 74 51 25 207 70 319 89 l96 17 3 65 c4
90 -3 119 -48 187 -22 33 -40 65 -40 72 0 26 265 367 355 457 84 85 101 97
207 147 104 49 278 154 334 203 12 10 34 40 49 66 l28 48 -31 192 c-46 286
-47 297 -29 297 9 0 22 -6 29 -13 14 -13 52 -40 231 -160 59 -39 107 -77 107
-84 0 -7 7 -13 15 -13 9 0 63 -23 120 -50 58 -28 129 -59 158 -70 28 -12 61
-25 72 -30 11 -5 36 -11 55 -15 28 -5 50 -23 105 -87 39 -44 112 -128 163
-186 52 -59 114 -134 139 -166 54 -73 54 -79 -9 -257 -97 -270 -260 -559 -407
-719 -116 -127 -172 -194 -234 -281 -25 -37 -68 -86 -94 -109 -56 -50 -186
-116 -298 -154 -44 -15 -86 -29 -93 -31 -10 -4 -8 -11 7 -31 12 -15 21 -39 21
-54 0 -61 -70 -223 -140 -326 -28 -40 -50 -80 -50 -88 0 -22 23 -31 141 -61
194 -49 528 -45 642 8 100 47 181 140 225 258 l21 57 -27 11 c-26 10 -108 22
-275 42 -43 5 -82 11 -88 14 -10 7 13 58 39 88 13 15 36 17 182 17 l166 0 53
69 c65 86 135 152 190 181 55 27 176 57 273 65 85 8 88 11 88 93 0 69 -42 144
-128 229 -55 54 -47 86 112 439 89 196 108 228 246 400 176 221 218 312 223
480 l2 90 -66 67 c-36 37 -71 67 -77 67 -7 0 -17 9 -24 20 -7 11 -18 20 -25
20 -24 0 -201 234 -366 485 -22 33 -60 78 -84 100 -27 25 -44 49 -45 65 -2 28
47 116 229 418 181 299 287 530 349 758 23 84 27 119 27 234 1 131 -7 174 -47
270 -9 21 46 50 94 50 37 0 40 -2 87 -80 26 -44 51 -80 55 -80 4 0 28 -16 54
-35 25 -19 54 -35 65 -35 10 0 19 -7 19 -15 0 -10 10 -15 29 -15 16 0 36 -7
44 -15 8 -7 25 -17 38 -20 45 -12 104 -61 126 -105 34 -67 29 -125 -19 -248
-11 -29 -19 -55 -16 -57 2 -3 26 34 53 83 27 48 64 109 82 136 30 42 36 60 45
142 12 102 20 110 51 53 10 -19 32 -47 49 -64 28 -28 35 -30 141 -36 83 -4
120 -11 144 -25 18 -10 33 -22 33 -26 0 -15 38 -8 44 8 8 22 -12 144 -28 169
-8 11 -39 49 -71 84 -32 36 -67 85 -77 108 -11 24 -39 62 -64 85 -24 22 -44
44 -44 49 0 16 70 10 76 -6 4 -8 14 -15 24 -15 9 0 28 -10 41 -21 22 -19 32
-21 112 -15 76 5 93 3 127 -14 46 -24 94 -25 133 -5 16 8 52 17 80 20 131 15
132 16 98 84 -17 32 -30 41 -93 65 -49 19 -88 43 -118 72 -31 30 -54 44 -72
44 -37 0 -57 35 -34 59 13 12 35 16 95 15 72 -1 83 -4 140 -39 51 -31 69 -36
98 -32 32 6 118 54 147 82 6 7 28 15 49 19 l37 7 -15 29 c-17 33 -61 60 -99
60 -13 0 -31 6 -38 13 -7 8 -25 17 -39 20 -15 4 -56 36 -93 72 -36 36 -72 65
-80 65 -15 0 -28 24 -19 34 4 3 31 6 61 6 45 0 71 8 137 41 85 42 185 62 199
40 9 -15 88 -14 123 1 47 20 84 78 49 78 -8 0 -16 7 -19 15 -4 8 -33 28 -66
45 -33 16 -76 44 -96 61 -48 42 -86 49 -246 42 -125 -5 -142 -4 -186 15 -26
11 -80 24 -120 27 -62 6 -82 4 -156 -20 -47 -15 -95 -25 -108 -23 -23 3 -22 6
22 48 59 58 148 112 227 139 52 17 86 21 206 21 184 0 265 23 348 98 l27 25
103 -12 103 -12 50 27 c28 15 63 39 80 52 26 22 36 24 97 20 59 -5 72 -2 102
18 19 13 38 24 41 24 8 0 44 42 45 51 0 3 -12 11 -27 18 -15 7 -73 41 -130 77
l-102 64 -76 0 c-58 0 -77 3 -81 15 -4 8 -17 15 -30 15 -13 0 -24 5 -24 11 0
5 5 7 10 4 6 -4 40 3 75 14 35 12 71 21 80 21 8 0 15 4 15 10 0 14 80 57 131
70 41 10 52 9 110 -15 86 -35 146 -43 155 -21 3 9 15 16 25 16 10 0 25 13 34
29 l15 29 -43 7 c-44 7 -126 61 -127 83 0 6 -7 12 -16 12 -9 0 -29 11 -45 24
-32 28 -106 46 -182 46 -46 0 -59 5 -107 41 -56 42 -144 89 -168 89 -8 0 -12
8 -10 18 4 24 59 27 119 8 84 -28 136 -21 240 29 99 48 130 54 175 30 16 -8
40 -15 55 -15 14 0 31 -6 38 -12 19 -20 129 -15 182 9 44 20 95 74 82 87 -3 3
-17 6 -29 6 -55 0 -157 50 -224 110 -37 33 -74 60 -82 60 -7 0 -22 6 -33 14
-14 9 -72 15 -182 20 -156 7 -165 8 -225 39 -80 41 -114 53 -160 61 -20 4 -38
11 -40 17 -2 5 -38 13 -81 17 -43 4 -79 12 -80 17 -1 6 32 27 73 47 72 36 79
37 182 38 71 0 119 -5 140 -14 56 -24 186 -39 368 -43 l175 -4 58 32 c32 17
66 43 75 57 9 15 25 35 36 45 15 16 17 31 14 91 -4 80 -34 152 -103 241 -37
49 -45 82 -21 91 8 3 50 -4 93 -16 92 -26 147 -27 169 -6 8 9 21 16 27 16 21
0 50 76 43 111 -10 50 -70 140 -133 200 -95 89 -235 199 -253 199 -9 0 -40 16
-70 35 -60 38 -70 41 -70 23 0 -7 24 -29 53 -48 72 -48 213 -192 232 -236 15
-37 20 -90 9 -118 -6 -16 -29 -12 -55 10 -22 20 -178 29 -208 12 -69 -36 -89
-164 -38 -232 16 -20 29 -49 29 -64 1 -29 -17 -72 -36 -84 -20 -14 -143 -9
-155 6 -6 7 -32 16 -58 19 -26 3 -49 10 -51 16 -2 6 -10 11 -19 11 -24 0 -358
112 -361 121 -2 5 -16 9 -30 9 -15 0 -72 14 -127 31 -94 29 -112 31 -305 36
-223 6 -278 -2 -387 -52 -90 -41 -197 -170 -339 -410 -32 -55 -66 -107 -74
-116 -8 -9 -20 -24 -26 -35 -7 -10 -15 -15 -20 -11 -4 4 15 55 43 112 31 60
55 124 59 153 9 73 -18 153 -71 207 -23 23 -71 78 -107 121 -55 67 -83 89
-171 142 -58 34 -110 69 -117 77 -14 17 -36 20 -45 5 -3 -6 5 -14 19 -20 14
-5 26 -14 26 -20 0 -5 9 -10 19 -10 24 0 241 -226 241 -251 0 -10 5 -21 10
-24 6 -3 10 -36 10 -73 0 -98 -32 -148 -163 -256 -117 -96 -145 -129 -187
-219 -95 -203 -57 -454 153 -1012 41 -110 82 -227 91 -260 27 -106 37 -223 26
-305 -5 -41 -14 -118 -20 -170 -13 -117 -50 -203 -101 -235 -9 -5 -35 -25 -59
-43 -25 -19 -55 -32 -72 -32 -16 0 -31 -6 -34 -15 -5 -12 -31 -15 -148 -15
-140 0 -142 0 -240 39 -54 21 -101 43 -105 48 -3 5 -35 29 -71 55 -73 51 -241
192 -311 260 -67 65 -198 167 -239 185 -8 3 -58 35 -111 70 -125 82 -139 87
-302 112 -137 21 -390 77 -478 106 -26 8 -55 15 -65 15 -11 0 -32 7 -48 15
-16 8 -47 18 -70 21 -22 4 -46 11 -53 16 -6 5 -40 17 -76 27 -35 10 -75 25
-88 32 -13 7 -58 25 -99 39 -258 93 -337 124 -350 135 -8 7 -27 15 -42 19 -16
3 -28 11 -28 16 0 6 -6 10 -14 10 -13 0 -105 47 -116 60 -3 3 -30 16 -60 30
-64 29 -181 105 -229 149 -18 17 -40 31 -48 31 -7 0 -16 7 -19 15 -3 8 -35 33
-70 55 -36 22 -62 45 -59 49 3 5 -37 41 -88 79 -164 125 -177 152 -138 281 19
62 30 79 84 132 34 33 74 68 90 77 15 9 27 20 27 24 0 4 6 8 13 8 29 -1 247
75 247 85 0 23 -81 71 -165 99 -97 31 -173 79 -175 109 0 16 80 6 131 -17 101
-44 148 -49 309 -32 176 20 157 19 205 7 46 -12 108 -14 153 -5 29 6 30 8 18
25 -7 11 -38 37 -68 58 -31 21 -65 48 -76 59 -21 21 -100 42 -157 42 -19 0
-49 6 -67 14 -18 8 -50 18 -70 21 -21 3 -38 9 -38 14 0 4 -19 18 -42 31 -59
33 -82 56 -75 74 8 20 24 20 79 2 67 -23 172 -45 182 -39 8 6 90 23 201 43 28
5 123 9 211 9 177 1 224 7 224 27 0 21 -71 64 -107 64 -17 0 -35 5 -38 11 -4
6 -40 25 -80 44 -70 32 -302 85 -371 85 -34 0 -149 86 -149 110 0 12 20 16 88
20 55 4 91 10 96 18 5 8 47 16 115 21 59 5 110 11 113 14 18 18 -62 57 -177
87 -47 12 -92 26 -100 31 -8 5 -27 14 -43 20 -15 6 -32 20 -38 30 -15 30 30
43 116 33 39 -4 117 -8 175 -8 99 0 109 2 172 33 38 18 70 37 74 42 9 15 104
10 198 -11 126 -28 187 -26 242 6 24 14 44 30 44 34 0 24 -15 40 -37 40 -13 0
-75 23 -137 50 -62 28 -127 50 -144 50 -17 0 -57 7 -89 15 -32 8 -101 15 -158
15 -67 0 -109 5 -127 14 -16 8 -48 18 -73 22 -25 3 -45 10 -45 14 0 4 -15 13
-32 19 -37 13 -98 52 -98 64 0 4 73 7 163 7 170 0 221 9 397 70 45 15 92 20
252 23 166 3 199 7 213 20 9 10 22 17 29 17 14 0 52 38 45 44 -2 2 -38 13 -79
26 -41 12 -106 38 -145 58 l-70 37 -235 -3 c-222 -3 -238 -2 -284 18 -57 24
-206 111 -206 119 0 3 19 19 41 36 46 34 47 54 1 74 -18 8 -31 19 -29 25 2 6
37 18 78 28 118 29 224 59 229 67 3 4 20 18 39 31 30 21 50 25 170 31 75 4
161 14 192 22 65 16 149 62 149 81 0 28 -36 46 -92 46 -40 0 -73 8 -120 29
-134 61 -287 84 -377 57 -61 -18 -315 -23 -326 -6 -3 5 -32 17 -65 26 -80 22
-89 35 -48 66 41 30 108 58 220 92 48 15 89 30 92 35 10 15 -17 29 -119 59
-81 24 -128 31 -247 37 -106 5 -160 12 -195 25 -27 11 -39 19 -27 20 11 0 25
5 30 10 6 6 58 15 116 20 123 12 148 20 283 89 108 55 173 72 220 59 20 -6 60
-3 118 8 78 15 91 20 113 49 38 50 33 55 -50 55 -41 0 -77 4 -80 9 -3 4 -29
11 -57 15 -28 4 -58 14 -66 22 -8 7 -30 14 -49 14 -22 0 -37 6 -40 15 -4 10
-20 15 -43 15 -21 0 -82 10 -137 22 -93 21 -121 22 -436 20 -186 -1 -338 1
-338 6 0 24 91 69 215 106 108 33 156 51 164 63 3 6 15 13 27 17 11 3 30 24
42 45 19 33 20 40 7 45 -8 3 -18 -1 -23 -9 -7 -13 -17 -13 -77 0 -39 8 -84 15
-100 15 -17 0 -35 4 -40 9 -6 4 -35 17 -65 27 -45 16 -94 20 -270 24 l-215 5
35 20 c19 10 63 31 97 46 66 29 123 65 123 79 0 5 -28 7 -62 4 -35 -3 -135 2
-223 12 -88 9 -185 17 -215 18 l-55 1 -8 -45 c-5 -25 -24 -118 -43 -207 -37
-174 -41 -223 -21 -223 6 0 34 -17 60 -37 266 -208 476 -471 632 -796 118
-244 161 -391 185 -636 33 -338 -27 -894 -147 -1361 -71 -276 -166 -605 -177
-612 -20 -13 -36 -9 -36 10 0 11 -9 27 -20 37 -11 10 -20 25 -20 32 0 8 -9 26
-20 40 -26 33 -25 65 4 160 40 128 153 557 190 718 78 343 106 606 85 824 -7
75 -12 150 -11 166 2 39 -70 329 -109 442 -37 105 -147 329 -196 396 -127 179
-367 446 -400 447 -6 0 -34 18 -62 40 -28 22 -53 40 -56 40 -3 0 -13 8 -24 18
-10 9 -51 35 -90 57 -39 22 -71 43 -71 48 0 4 18 7 40 7 46 0 83 31 95 78 4
15 13 41 21 57 7 17 20 75 28 130 8 55 27 178 41 274 14 96 25 190 23 210 -3
32 -9 23 -56 -94z m-1107 -923 c53 -37 67 -66 61 -126 -10 -89 -50 -117 -150
-102 -38 6 -53 16 -102 69 -49 53 -63 62 -101 67 -46 5 -59 23 -21 28 13 2 29
9 36 15 7 6 55 21 105 34 51 13 96 28 102 34 14 14 27 11 70 -19z m-1191 -507
c3 -8 12 -15 21 -15 24 0 55 -60 55 -108 0 -37 -6 -50 -34 -78 -31 -31 -40
-34 -91 -34 l-56 0 30 37 c37 45 38 58 9 117 -17 36 -27 46 -55 51 -18 3 -38
3 -43 0 -6 -3 -10 -1 -10 4 0 6 9 11 20 11 11 0 23 7 26 15 5 11 22 15 64 15
42 0 59 -4 64 -15z"/>
</g>
</svg>
